HIERARCHY
ROOT joint_Root
{
	OFFSET 0.0 0.0 0.0
	CHANNELS 6 Xposition Yposition Zposition Zrotation Xrotation Yrotation 
	JOINT Hips
	{
		OFFSET 4.5925 91.4895 -427.239
		CHANNELS 6 Xposition Yposition Zposition Zrotation Xrotation Yrotation 
		JOINT Spine
		{
			OFFSET 15.7357 0.0 0.0
			CHANNELS 6 Xposition Yposition Zposition Zrotation Xrotation Yrotation 
			JOINT Chest
			{
				OFFSET 8.98455 -0.406207 0.0
				CHANNELS 6 Xposition Yposition Zposition Zrotation Xrotation Yrotation 
				JOINT Neck
				{
					OFFSET 16.3773 0.0 0.0
					CHANNELS 6 Xposition Yposition Zposition Zrotation Xrotation Yrotation 
					JOINT Head
					{
						OFFSET 6.45672 0.0 0.0
						CHANNELS 6 Xposition Yposition Zposition Zrotation Xrotation Yrotation 
						End Site
						{
							OFFSET 0.0 0.0 0.0
						}
					}
				}
				JOINT Shoulder_L
				{
					OFFSET 12.9942 -0.242716 4.98039
					CHANNELS 6 Xposition Yposition Zposition Zrotation Xrotation Yrotation 
					JOINT UpperArm_L
					{
						OFFSET 5.34809 0.0 0.0
						CHANNELS 6 Xposition Yposition Zposition Zrotation Xrotation Yrotation 
						JOINT LowerArm_L
						{
							OFFSET 24.3286 1.87007e-05 0.0
							CHANNELS 6 Xposition Yposition Zposition Zrotation Xrotation Yrotation 
							JOINT Hand_L
							{
								OFFSET 22.2916 0.0 0.0
								CHANNELS 6 Xposition Yposition Zposition Zrotation Xrotation Yrotation 
								End Site
								{
									OFFSET 0.0 0.0 0.0
								}
							}
						}
					}
				}
				JOINT Shoulder_R
				{
					OFFSET 12.9945 -0.242716 -4.98039
					CHANNELS 6 Xposition Yposition Zposition Zrotation Xrotation Yrotation 
					JOINT UpperArm_R
					{
						OFFSET -5.34813 0.0 0.0
						CHANNELS 6 Xposition Yposition Zposition Zrotation Xrotation Yrotation 
						JOINT LowerArm_R
						{
							OFFSET -24.3289 0.000322201 0.0
							CHANNELS 6 Xposition Yposition Zposition Zrotation Xrotation Yrotation 
							JOINT Hand_R
							{
								OFFSET -22.2915 -0.000108084 0.0
								CHANNELS 6 Xposition Yposition Zposition Zrotation Xrotation Yrotation 
								End Site
								{
									OFFSET 0.0 0.0 0.0
								}
							}
						}
					}
				}
			}
		}
		JOINT UpperLeg_L
		{
			OFFSET -2.19248 -6.46944 0.0
			CHANNELS 6 Xposition Yposition Zposition Zrotation Xrotation Yrotation 
			JOINT LowerLeg_L
			{
				OFFSET 39.0811 0.0 -1.23785e-05
				CHANNELS 6 Xposition Yposition Zposition Zrotation Xrotation Yrotation 
				JOINT Foot_L
				{
					OFFSET 40.9854 0.0 -1.26872e-05
					CHANNELS 6 Xposition Yposition Zposition Zrotation Xrotation Yrotation 
					JOINT Toes_L
					{
						OFFSET 11.7543 0.0 0.0
						CHANNELS 6 Xposition Yposition Zposition Zrotation Xrotation Yrotation 
						End Site
						{
							OFFSET 0.0 0.0 0.0
						}
					}
				}
			}
		}
		JOINT UpperLeg_R
		{
			OFFSET -2.19251 6.46944 0.0
			CHANNELS 6 Xposition Yposition Zposition Zrotation Xrotation Yrotation 
			JOINT LowerLeg_R
			{
				OFFSET -39.0811 -0.00228153 -0.0401928
				CHANNELS 6 Xposition Yposition Zposition Zrotation Xrotation Yrotation 
				JOINT Foot_R
				{
					OFFSET -40.9854 0.0 0.0
					CHANNELS 6 Xposition Yposition Zposition Zrotation Xrotation Yrotation 
					JOINT Toes_R
					{
						OFFSET -11.7543 0.0 0.0
						CHANNELS 6 Xposition Yposition Zposition Zrotation Xrotation Yrotation 
						End Site
						{
							OFFSET 0.0 0.0 0.0
						}
					}
				}
			}
		}
	}
}
MOTION
Frames:	9
Frame Time:	0.0333333
0.000000 0.000000 0.000000 0.000000 0.000000 -0.000000 -3.471310 90.545000 4.081590 90.054600 0.320953 9.140760 15.735700 0.000005 -0.000001 87.613900 83.365400 -87.800200 8.984550 -0.406207 -0.000000 5.490900 -0.547466 -0.345985 16.377300 -0.000001 -0.000001 3.992210 -2.921030 2.988640 6.456720 -0.000001 -0.000000 -16.841600 -1.624490 1.496400 12.994200 -0.242716 4.980390 -91.519400 5.516980 -74.575700 5.348090 -0.000007 -0.000001 -59.627200 49.368300 -21.187700 24.328600 0.000019 0.000005 9.769750 18.910000 -27.981700 22.291600 -0.000001 0.000005 10.190200 5.293110 0.264713 12.994500 -0.242716 -4.980390 88.678900 10.572300 -82.836100 -5.348130 -0.000001 -0.000004 -64.030900 31.354900 -13.953900 -24.328900 0.000322 -0.000009 0.771709 1.723080 -24.161400 -22.291500 -0.000108 -0.000004 14.449900 5.397940 -2.871120 -2.192480 -6.469440 -0.000000 -173.486000 -8.110180 2.518760 39.081100 -0.000007 -0.000012 -0.195136 0.356284 28.709800 40.985400 -0.000006 -0.000013 -1.748160 6.920390 -71.841300 11.754300 -0.000000 0.000003 -0.000087 -0.000911 -16.612600 -2.192510 6.469440 -0.000001 175.628000 18.199800 -175.611000 -39.081100 -0.002282 -0.040193 -0.047392 0.092357 28.763000 -40.985400 0.000008 0.000006 5.969180 9.207310 -74.440900 -11.754300 -0.000006 -0.000006 -0.004052 -0.051978 -18.687400
0.000000 0.000000 0.000000 0.000000 0.000000 -0.000000 -3.404290 90.540200 4.115120 90.047400 0.455343 9.159650 15.735700 0.000005 -0.000001 87.583200 83.292800 -87.809500 8.984550 -0.406207 -0.000000 5.635510 -0.560078 -0.424416 16.377300 -0.000001 -0.000001 3.935430 -2.798390 2.871680 6.456720 -0.000001 -0.000000 -16.571200 -1.437820 1.323490 12.994200 -0.242716 4.980390 -91.565700 5.642840 -74.464600 5.348090 -0.000007 -0.000001 -59.298400 49.878800 -21.313000 24.328600 0.000019 0.000005 9.878780 18.869500 -28.300700 22.291600 -0.000001 0.000005 10.108200 5.293720 0.247914 12.994500 -0.242716 -4.980390 88.583000 10.960700 -82.587400 -5.348130 -0.000001 -0.000004 -63.390600 28.839100 -13.818600 -24.328900 0.000322 -0.000009 0.605420 1.307250 -24.892100 -22.291500 -0.000108 -0.000004 14.914600 5.407700 -3.189060 -2.192480 -6.469440 -0.000000 -173.554000 -7.977310 2.512910 39.081100 -0.000007 -0.000012 -0.193045 0.351785 28.756400 40.985400 -0.000006 -0.000013 -1.702470 6.883680 -71.885500 11.754300 -0.000000 0.000003 -0.000087 -0.000909 -16.612500 -2.192510 6.469440 -0.000001 175.572000 18.257800 -175.548000 -39.081100 -0.002282 -0.040193 -0.044096 0.086355 28.762400 -40.985400 0.000008 0.000006 5.988800 9.154990 -74.475100 -11.754300 -0.000006 -0.000006 -0.004059 -0.052053 -18.690500
0.000000 0.000000 0.000000 0.000000 0.000000 -0.000000 -3.319450 90.541800 4.129850 90.010400 0.468408 9.196450 15.735700 0.000005 -0.000001 87.453400 83.192500 -87.697500 8.984550 -0.406207 -0.000000 5.834470 -0.599282 -0.457139 16.377300 -0.000001 -0.000001 3.902740 -2.559260 2.609660 6.456720 -0.000001 -0.000000 -16.155200 -1.192760 1.244630 12.994200 -0.242716 4.980390 -91.611000 5.747580 -74.313600 5.348090 -0.000007 -0.000001 -59.273200 49.820200 -21.147300 24.328600 0.000019 0.000005 9.915220 18.962200 -28.277600 22.291600 -0.000001 0.000005 9.944430 5.293770 0.246216 12.994500 -0.242716 -4.980390 88.492200 11.556900 -82.514900 -5.348130 -0.000001 -0.000004 -61.532500 26.201300 -14.341500 -24.328900 0.000322 -0.000009 0.638683 1.338670 -25.545200 -22.291500 -0.000108 -0.000004 14.976200 5.405700 -3.123620 -2.192480 -6.469440 -0.000000 -173.577000 -7.951240 2.539340 39.081100 -0.000007 -0.000012 -0.192936 0.351067 28.792200 40.985400 -0.000006 -0.000013 -1.642120 6.859820 -71.923500 11.754300 -0.000000 0.000003 -0.000089 -0.000927 -16.613200 -2.192510 6.469440 -0.000001 175.583000 18.235400 -175.507000 -39.081100 -0.002282 -0.040193 -0.028577 0.058093 28.757800 -40.985400 0.000008 0.000006 6.099720 9.055130 -74.492600 -11.754300 -0.000006 -0.000006 -0.003932 -0.050727 -18.636500
0.000000 0.000000 0.000000 0.000000 0.000000 -0.000000 -3.217050 90.533200 4.115050 89.982700 0.347400 9.266980 15.735700 0.000005 -0.000001 87.490600 83.063200 -87.717700 8.984550 -0.406207 -0.000000 6.093370 -0.602467 -0.421775 16.377300 -0.000001 -0.000001 3.843540 -2.323540 2.375570 6.456720 -0.000001 -0.000000 -15.535200 -0.786907 0.866883 12.994200 -0.242716 4.980390 -91.634300 5.788780 -74.204700 5.348090 -0.000007 -0.000001 -59.354800 49.561700 -20.951900 24.328600 0.000019 0.000005 9.824030 19.193800 -27.775900 22.291600 -0.000001 0.000005 9.941010 5.294990 0.212366 12.994500 -0.242716 -4.980390 88.403400 12.181300 -82.474900 -5.348130 -0.000001 -0.000004 -58.349100 23.751700 -15.838900 -24.328900 0.000322 -0.000009 1.075490 2.233140 -25.746300 -22.291500 -0.000108 -0.000004 14.561800 5.402440 -3.016540 -2.192480 -6.469440 -0.000000 -173.603000 -8.037350 2.576700 39.081100 -0.000007 -0.000012 -0.191301 0.346670 28.891300 40.985400 -0.000006 -0.000013 -1.578170 6.793900 -71.989000 11.754300 -0.000000 0.000003 -0.000086 -0.000903 -16.612300 -2.192510 6.469440 -0.000001 175.547000 18.121200 -175.500000 -39.081100 -0.002282 -0.040193 -0.023650 0.048955 28.837200 -40.985400 0.000008 0.000006 6.137490 9.066400 -74.515000 -11.754300 -0.000006 -0.000006 -0.003960 -0.051023 -18.648600
0.000000 0.000000 0.000000 0.000000 0.000000 -0.000000 -3.096870 90.527200 4.088730 89.937800 0.034753 9.374560 15.735700 0.000005 -0.000001 87.773400 82.937400 -87.918700 8.984550 -0.406207 -0.000000 6.347990 -0.545392 -0.259976 16.377300 -0.000001 -0.000001 3.961950 -2.090740 2.221290 6.456720 -0.000001 -0.000000 -14.902300 -0.198400 -0.041950 12.994200 -0.242716 4.980390 -91.648600 5.822280 -74.160500 5.348090 -0.000007 -0.000001 -59.583000 49.201300 -20.501500 24.328600 0.000019 0.000005 9.695960 19.524200 -27.078100 22.291600 -0.000001 0.000005 9.785410 5.291220 0.317262 12.994500 -0.242716 -4.980390 88.355300 12.459700 -82.419200 -5.348130 -0.000001 -0.000004 -54.958600 20.456300 -17.857900 -24.328900 0.000322 -0.000009 1.949930 4.065030 -25.666400 -22.291500 -0.000108 -0.000004 14.283000 5.390100 -2.618340 -2.192480 -6.469440 -0.000000 -173.629000 -8.155080 2.685210 39.081100 -0.000007 -0.000012 -0.189774 0.342698 28.976500 40.985400 -0.000006 -0.000013 -1.534180 6.593640 -72.067600 11.754300 -0.000000 0.000003 -0.000090 -0.000938 -16.613600 -2.192510 6.469440 -0.000001 175.528000 17.918400 -175.494000 -39.081100 -0.002282 -0.040193 -0.015118 0.033330 28.930600 -40.985400 0.000008 0.000006 6.265900 9.136510 -74.540900 -11.754300 -0.000006 -0.000006 -0.003886 -0.050249 -18.617000
0.000000 0.000000 0.000000 0.000000 0.000000 -0.000000 -2.944720 90.527800 4.025900 89.885300 -0.282874 9.440450 15.735700 0.000005 -0.000001 87.903500 82.880200 -87.947600 8.984550 -0.406207 -0.000000 6.464100 -0.518854 -0.058707 16.377300 -0.000001 -0.000001 4.295400 -1.889930 2.190330 6.456720 -0.000001 -0.000000 -14.110000 0.412248 -1.259320 12.994200 -0.242716 4.980390 -91.655600 5.845980 -74.157300 5.348090 -0.000007 -0.000001 -59.617800 49.012200 -19.985200 24.328600 0.000019 0.000005 9.493940 19.956100 -26.104500 22.291600 -0.000001 0.000005 9.729750 5.286880 0.437528 12.994500 -0.242716 -4.980390 88.354300 12.351300 -82.350200 -5.348130 -0.000001 -0.000004 -52.243700 15.848900 -19.843100 -24.328900 0.000322 -0.000009 2.588060 5.397740 -25.673600 -22.291500 -0.000108 -0.000004 14.332300 5.376100 -2.176320 -2.192480 -6.469440 -0.000000 -173.698000 -8.242790 2.702630 39.081100 -0.000007 -0.000012 -0.187866 0.337796 29.081000 40.985400 -0.000006 -0.000013 -1.482650 6.319140 -72.122600 11.754300 -0.000000 0.000003 -0.000093 -0.000969 -16.614800 -2.192510 6.469440 -0.000001 175.490000 17.770900 -175.554000 -39.081100 -0.002282 -0.040193 -0.008855 0.021918 29.019000 -40.985400 0.000008 0.000006 6.369870 9.290170 -74.531100 -11.754300 -0.000006 -0.000006 -0.004031 -0.051764 -18.678800
0.000000 0.000000 0.000000 0.000000 0.000000 -0.000000 -2.770040 90.548800 3.937210 89.871900 -0.596380 9.380560 15.735700 0.000005 -0.000001 87.915500 82.914200 -87.888400 8.984550 -0.406207 -0.000000 6.396580 -0.514276 0.082798 16.377300 -0.000001 -0.000001 4.720360 -1.681600 2.190510 6.456720 -0.000001 -0.000000 -13.062000 0.939794 -2.364110 12.994200 -0.242716 4.980390 -91.672700 5.890450 -74.116400 5.348090 -0.000007 -0.000001 -59.554800 48.712900 -19.312000 24.328600 0.000019 0.000005 9.283800 20.564500 -24.955900 22.291600 -0.000001 0.000005 9.783090 5.287510 0.419807 12.994500 -0.242716 -4.980390 88.365600 12.109600 -82.254400 -5.348130 -0.000001 -0.000004 -50.202700 10.115500 -21.702600 -24.328900 0.000322 -0.000009 2.602930 5.304200 -26.196600 -22.291500 -0.000108 -0.000004 14.451800 5.364810 -1.827410 -2.192480 -6.469440 -0.000000 -173.851000 -8.302580 2.628880 39.081100 -0.000007 -0.000012 -0.183201 0.329544 29.071000 40.985400 -0.000006 -0.000013 -1.419100 6.048460 -72.106300 11.754300 -0.000000 0.000003 -0.000093 -0.000971 -16.614900 -2.192510 6.469440 -0.000001 175.463000 17.561900 -175.747000 -39.081100 -0.002282 -0.040193 -0.004181 0.013482 29.039400 -40.985400 0.000008 0.000006 6.341170 9.408260 -74.430300 -11.754300 -0.000006 -0.000006 -0.004008 -0.051520 -18.668800
0.000000 0.000000 0.000000 0.000000 0.000000 -0.000000 -2.586860 90.580900 3.862180 89.875900 -0.863791 9.259720 15.735700 0.000005 -0.000001 87.685700 83.006600 -87.616700 8.984550 -0.406207 -0.000000 6.209850 -0.564136 0.168441 16.377300 -0.000001 -0.000001 5.264040 -1.408930 2.097130 6.456720 -0.000001 -0.000000 -11.968500 1.395980 -3.102550 12.994200 -0.242716 4.980390 -91.708000 5.950230 -73.952400 5.348090 -0.000007 -0.000001 -59.616800 47.981300 -18.400500 24.328600 0.000019 0.000005 8.942550 21.013900 -23.692800 22.291600 -0.000001 0.000005 9.640010 5.286760 0.440499 12.994500 -0.242716 -4.980390 88.356800 11.764100 -81.990700 -5.348130 -0.000001 -0.000004 -48.543300 4.202600 -23.744400 -24.328900 0.000322 -0.000009 2.268110 4.405950 -27.285700 -22.291500 -0.000108 -0.000004 14.883200 5.359260 -1.657480 -2.192480 -6.469440 -0.000000 -174.001000 -8.483800 2.533730 39.081100 -0.000007 -0.000012 -0.180517 0.325810 28.989200 40.985400 -0.000006 -0.000013 -1.325970 5.880280 -72.051400 11.754300 -0.000000 0.000003 -0.000083 -0.000881 -16.611500 -2.192510 6.469440 -0.000001 175.435000 17.330300 -175.959000 -39.081100 -0.002282 -0.040193 -0.002380 0.010258 28.991500 -40.985400 0.000008 0.000006 6.284590 9.473300 -74.300900 -11.754300 -0.000006 -0.000006 -0.003992 -0.051359 -18.662200
0.000000 0.000000 0.000000 0.000000 0.000000 -0.000000 -2.393760 90.599800 3.793070 89.894700 -0.953877 9.184160 15.735700 0.000005 -0.000001 87.011100 83.085600 -86.918300 8.984550 -0.406207 -0.000000 6.044860 -0.720495 0.223430 16.377300 -0.000001 -0.000001 5.886950 -1.170440 2.035320 6.456720 -0.000001 -0.000000 -10.969500 1.799800 -3.704670 12.994200 -0.242716 4.980390 -91.752300 6.037580 -73.782600 5.348090 -0.000007 -0.000001 -59.852200 46.695800 -17.290100 24.328600 0.000019 0.000005 8.708410 21.784400 -22.427500 22.291600 -0.000001 0.000005 9.862720 5.280660 0.607885 12.994500 -0.242716 -4.980390 88.369600 11.281000 -81.721200 -5.348130 -0.000001 -0.000004 -47.048900 -1.483480 -25.990300 -24.328900 0.000322 -0.000009 2.159950 3.917020 -28.918800 -22.291500 -0.000108 -0.000004 15.745700 5.355100 -1.531490 -2.192480 -6.469440 -0.000000 -174.167000 -8.616150 2.428360 39.081100 -0.000007 -0.000012 -0.174802 0.315610 28.980400 40.985400 -0.000006 -0.000013 -1.187850 5.830350 -72.025700 11.754300 -0.000000 0.000003 -0.000092 -0.000954 -16.614200 -2.192510 6.469440 -0.000001 175.288000 17.274100 -176.094000 -39.081100 -0.002282 -0.040193 -0.017123 0.036917 28.956000 -40.985400 0.000008 0.000006 5.883460 9.661280 -74.124500 -11.754300 -0.000006 -0.000006 -0.003817 -0.049528 -18.587700
